# xmcd
#
# Track frame offsets:
#	150
#	14030
#	25637
#	42982
#	56692
#	70655
#	82347
#	96910
#	112285
#	129202
#
# Disc length: 1959 seconds
#
# Revision: 0
# Processed by: cddbd v1.4PL0 Copyright (c) Steve Scherf et al.
# Submitted via: audiograbber 1.82.02
#
DISCID=8907a50a
DTITLE=Various Artist - Wild Wild Country
DYEAR=1991
DGENRE=Country
TTITLE0=Yoakam, Dwight - Little Sister
TTITLE1=Jennings, Waylon - Rough and Rowdy Days
TTITLE2=Royal, Billy Joe - Out of Sight and on My Mind
TTITLE3=Anderson, John - Swingin'
TTITLE4=Seals, Dan - Three Time Loser
TTITLE5=Earle, Steve - Guitar Town
TTITLE6=Brown, T. Graham - Hell and High Water
TTITLE7=Desert Rose Band - One Step Forward
TTITLE8=Southern Pacific - Midnight Highway
TTITLE9=Frizell, David - I'm Gonna Hire a Wino to Decorate Our Home
EXTD=Submitted by Robert Orin Charles Kilroy.
EXTT0=Dwight Yoakam
EXTT1=Waylon Jennings
EXTT2=Billy Joe Royal
EXTT3=John Anderson
EXTT4=Dan Seals
EXTT5=Steve Earle
EXTT6=Graham Brown
EXTT7=Desert Rose Band
EXTT8=Southern Pacific
EXTT9=David Frizell
PLAYORDER=
